<mxfile host="app.diagrams.net" modified="2023-05-08T04:00:02.223Z" agent="Mozilla/5.0 (Windows NT 10.0; Win64; x64) AppleWebKit/537.36 (KHTML, like Gecko) Chrome/112.0.0.0 Safari/537.36" etag="F3P_RWYlwPc3WL0Brrnl" version="21.2.9" type="device">
  <diagram name="Page-1" id="vs2ne97_HYTHQqnGItHb">
    <mxGraphModel dx="1443" dy="693" grid="1" gridSize="10" guides="1" tooltips="1" connect="1" arrows="1" fold="1" page="1" pageScale="1" pageWidth="827" pageHeight="1169" math="0" shadow="0">
      <root>
        <mxCell id="0" />
        <mxCell id="1" parent="0" />
        <mxCell id="iKV3raK33TPdJ7R0SgNm-1" value="Client" style="swimlane;fontStyle=0;childLayout=stackLayout;horizontal=1;startSize=26;fillColor=none;horizontalStack=0;resizeParent=1;resizeParentMax=0;resizeLast=0;collapsible=1;marginBottom=0;whiteSpace=wrap;html=1;" vertex="1" parent="1">
          <mxGeometry x="80" y="440" width="140" height="100" as="geometry" />
        </mxCell>
        <mxCell id="iKV3raK33TPdJ7R0SgNm-2" value="Name: String&lt;br&gt;MDP: String&lt;br&gt;Factures: List&amp;lt;Facture&amp;gt;&lt;br&gt;Panier: Panier" style="text;strokeColor=none;fillColor=none;align=left;verticalAlign=top;spacingLeft=4;spacingRight=4;overflow=hidden;rotatable=0;points=[[0,0.5],[1,0.5]];portConstraint=eastwest;whiteSpace=wrap;html=1;" vertex="1" parent="iKV3raK33TPdJ7R0SgNm-1">
          <mxGeometry y="26" width="140" height="74" as="geometry" />
        </mxCell>
        <mxCell id="iKV3raK33TPdJ7R0SgNm-5" value="Facture" style="swimlane;fontStyle=0;childLayout=stackLayout;horizontal=1;startSize=26;fillColor=none;horizontalStack=0;resizeParent=1;resizeParentMax=0;resizeLast=0;collapsible=1;marginBottom=0;whiteSpace=wrap;html=1;" vertex="1" parent="1">
          <mxGeometry x="80" y="600" width="140" height="80" as="geometry" />
        </mxCell>
        <mxCell id="iKV3raK33TPdJ7R0SgNm-6" value="IDFacture: string&lt;br&gt;Articles: List&amp;lt;Article&amp;gt;&lt;br&gt;TotalPrice: Float&lt;br&gt;" style="text;strokeColor=none;fillColor=none;align=left;verticalAlign=top;spacingLeft=4;spacingRight=4;overflow=hidden;rotatable=0;points=[[0,0.5],[1,0.5]];portConstraint=eastwest;whiteSpace=wrap;html=1;" vertex="1" parent="iKV3raK33TPdJ7R0SgNm-5">
          <mxGeometry y="26" width="140" height="54" as="geometry" />
        </mxCell>
        <mxCell id="iKV3raK33TPdJ7R0SgNm-9" value="Panier" style="swimlane;fontStyle=0;childLayout=stackLayout;horizontal=1;startSize=26;fillColor=none;horizontalStack=0;resizeParent=1;resizeParentMax=0;resizeLast=0;collapsible=1;marginBottom=0;whiteSpace=wrap;html=1;" vertex="1" parent="1">
          <mxGeometry x="280" y="600" width="140" height="70" as="geometry" />
        </mxCell>
        <mxCell id="iKV3raK33TPdJ7R0SgNm-10" value="Articles: List&amp;lt;Article&amp;gt;&lt;br&gt;TotalPrice: Float" style="text;strokeColor=none;fillColor=none;align=left;verticalAlign=top;spacingLeft=4;spacingRight=4;overflow=hidden;rotatable=0;points=[[0,0.5],[1,0.5]];portConstraint=eastwest;whiteSpace=wrap;html=1;" vertex="1" parent="iKV3raK33TPdJ7R0SgNm-9">
          <mxGeometry y="26" width="140" height="44" as="geometry" />
        </mxCell>
        <mxCell id="iKV3raK33TPdJ7R0SgNm-13" value="Article" style="swimlane;fontStyle=0;childLayout=stackLayout;horizontal=1;startSize=26;fillColor=none;horizontalStack=0;resizeParent=1;resizeParentMax=0;resizeLast=0;collapsible=1;marginBottom=0;whiteSpace=wrap;html=1;" vertex="1" parent="1">
          <mxGeometry x="190" y="750" width="140" height="120" as="geometry" />
        </mxCell>
        <mxCell id="iKV3raK33TPdJ7R0SgNm-14" value="IDArticle: String&lt;br&gt;Name: String&lt;br&gt;Brand: String&lt;br&gt;Price: Float&lt;br&gt;Quantity: Int&lt;br&gt;Date: DateTime" style="text;strokeColor=none;fillColor=none;align=left;verticalAlign=top;spacingLeft=4;spacingRight=4;overflow=hidden;rotatable=0;points=[[0,0.5],[1,0.5]];portConstraint=eastwest;whiteSpace=wrap;html=1;" vertex="1" parent="iKV3raK33TPdJ7R0SgNm-13">
          <mxGeometry y="26" width="140" height="94" as="geometry" />
        </mxCell>
        <mxCell id="iKV3raK33TPdJ7R0SgNm-17" value="Shop" style="swimlane;fontStyle=0;childLayout=stackLayout;horizontal=1;startSize=26;fillColor=none;horizontalStack=0;resizeParent=1;resizeParentMax=0;resizeLast=0;collapsible=1;marginBottom=0;whiteSpace=wrap;html=1;" vertex="1" parent="1">
          <mxGeometry x="440" y="840" width="140" height="52" as="geometry" />
        </mxCell>
        <mxCell id="iKV3raK33TPdJ7R0SgNm-19" value="Articles: List&amp;lt;Article&amp;gt;" style="text;strokeColor=none;fillColor=none;align=left;verticalAlign=top;spacingLeft=4;spacingRight=4;overflow=hidden;rotatable=0;points=[[0,0.5],[1,0.5]];portConstraint=eastwest;whiteSpace=wrap;html=1;" vertex="1" parent="iKV3raK33TPdJ7R0SgNm-17">
          <mxGeometry y="26" width="140" height="26" as="geometry" />
        </mxCell>
        <mxCell id="iKV3raK33TPdJ7R0SgNm-21" value="" style="endArrow=none;html=1;rounded=0;exitX=0.5;exitY=0;exitDx=0;exitDy=0;" edge="1" parent="1" source="iKV3raK33TPdJ7R0SgNm-5">
          <mxGeometry width="50" height="50" relative="1" as="geometry">
            <mxPoint x="100" y="590" as="sourcePoint" />
            <mxPoint x="150" y="540" as="targetPoint" />
          </mxGeometry>
        </mxCell>
        <mxCell id="iKV3raK33TPdJ7R0SgNm-22" value="0 .. *" style="text;html=1;strokeColor=none;fillColor=none;align=center;verticalAlign=middle;whiteSpace=wrap;rounded=0;" vertex="1" parent="1">
          <mxGeometry x="150" y="540" width="40" height="15" as="geometry" />
        </mxCell>
        <mxCell id="iKV3raK33TPdJ7R0SgNm-23" value="0" style="text;html=1;strokeColor=none;fillColor=none;align=center;verticalAlign=middle;whiteSpace=wrap;rounded=0;" vertex="1" parent="1">
          <mxGeometry x="150" y="582" width="20" height="15" as="geometry" />
        </mxCell>
        <mxCell id="iKV3raK33TPdJ7R0SgNm-24" value="" style="endArrow=none;html=1;rounded=0;" edge="1" parent="1">
          <mxGeometry width="50" height="50" relative="1" as="geometry">
            <mxPoint x="220" y="500" as="sourcePoint" />
            <mxPoint x="350" y="500" as="targetPoint" />
          </mxGeometry>
        </mxCell>
        <mxCell id="iKV3raK33TPdJ7R0SgNm-25" value="" style="endArrow=none;html=1;rounded=0;" edge="1" parent="1">
          <mxGeometry width="50" height="50" relative="1" as="geometry">
            <mxPoint x="350" y="600" as="sourcePoint" />
            <mxPoint x="350" y="500" as="targetPoint" />
          </mxGeometry>
        </mxCell>
        <mxCell id="iKV3raK33TPdJ7R0SgNm-26" value="0" style="text;html=1;strokeColor=none;fillColor=none;align=center;verticalAlign=middle;whiteSpace=wrap;rounded=0;" vertex="1" parent="1">
          <mxGeometry x="350" y="577" width="40" height="15" as="geometry" />
        </mxCell>
        <mxCell id="iKV3raK33TPdJ7R0SgNm-27" value="1" style="text;html=1;strokeColor=none;fillColor=none;align=center;verticalAlign=middle;whiteSpace=wrap;rounded=0;" vertex="1" parent="1">
          <mxGeometry x="220" y="482" width="30" height="15" as="geometry" />
        </mxCell>
        <mxCell id="iKV3raK33TPdJ7R0SgNm-28" value="" style="endArrow=none;html=1;rounded=0;" edge="1" parent="1">
          <mxGeometry width="50" height="50" relative="1" as="geometry">
            <mxPoint x="150" y="800" as="sourcePoint" />
            <mxPoint x="150" y="680" as="targetPoint" />
          </mxGeometry>
        </mxCell>
        <mxCell id="iKV3raK33TPdJ7R0SgNm-29" value="" style="endArrow=none;html=1;rounded=0;entryX=-0.015;entryY=0.257;entryDx=0;entryDy=0;entryPerimeter=0;" edge="1" parent="1" target="iKV3raK33TPdJ7R0SgNm-14">
          <mxGeometry width="50" height="50" relative="1" as="geometry">
            <mxPoint x="150" y="800" as="sourcePoint" />
            <mxPoint x="200" y="750" as="targetPoint" />
          </mxGeometry>
        </mxCell>
        <mxCell id="iKV3raK33TPdJ7R0SgNm-30" value="0" style="text;html=1;strokeColor=none;fillColor=none;align=center;verticalAlign=middle;whiteSpace=wrap;rounded=0;" vertex="1" parent="1">
          <mxGeometry x="160" y="790" width="30" height="8" as="geometry" />
        </mxCell>
        <mxCell id="iKV3raK33TPdJ7R0SgNm-31" value="1 .. *" style="text;html=1;strokeColor=none;fillColor=none;align=center;verticalAlign=middle;whiteSpace=wrap;rounded=0;" vertex="1" parent="1">
          <mxGeometry x="155" y="690" width="30" height="10" as="geometry" />
        </mxCell>
        <mxCell id="iKV3raK33TPdJ7R0SgNm-36" value="" style="endArrow=none;html=1;rounded=0;" edge="1" parent="1">
          <mxGeometry width="50" height="50" relative="1" as="geometry">
            <mxPoint x="390" y="820" as="sourcePoint" />
            <mxPoint x="390" y="670" as="targetPoint" />
          </mxGeometry>
        </mxCell>
        <mxCell id="iKV3raK33TPdJ7R0SgNm-37" value="" style="endArrow=none;html=1;rounded=0;exitX=1;exitY=0.5;exitDx=0;exitDy=0;" edge="1" parent="1" source="iKV3raK33TPdJ7R0SgNm-14">
          <mxGeometry width="50" height="50" relative="1" as="geometry">
            <mxPoint x="340" y="870" as="sourcePoint" />
            <mxPoint x="390" y="820" as="targetPoint" />
          </mxGeometry>
        </mxCell>
        <mxCell id="iKV3raK33TPdJ7R0SgNm-38" value="0" style="text;html=1;strokeColor=none;fillColor=none;align=center;verticalAlign=middle;whiteSpace=wrap;rounded=0;" vertex="1" parent="1">
          <mxGeometry x="330" y="802.5" width="30" height="15" as="geometry" />
        </mxCell>
        <mxCell id="iKV3raK33TPdJ7R0SgNm-39" value="0 .. 1" style="text;html=1;strokeColor=none;fillColor=none;align=center;verticalAlign=middle;whiteSpace=wrap;rounded=0;" vertex="1" parent="1">
          <mxGeometry x="355" y="680" width="30" height="10" as="geometry" />
        </mxCell>
        <mxCell id="iKV3raK33TPdJ7R0SgNm-40" value="" style="endArrow=none;html=1;rounded=0;exitX=1.013;exitY=0.804;exitDx=0;exitDy=0;exitPerimeter=0;" edge="1" parent="1" source="iKV3raK33TPdJ7R0SgNm-14">
          <mxGeometry width="50" height="50" relative="1" as="geometry">
            <mxPoint x="334" y="854" as="sourcePoint" />
            <mxPoint x="440" y="850" as="targetPoint" />
          </mxGeometry>
        </mxCell>
        <mxCell id="iKV3raK33TPdJ7R0SgNm-41" value="0 .. 1" style="text;html=1;strokeColor=none;fillColor=none;align=center;verticalAlign=middle;whiteSpace=wrap;rounded=0;" vertex="1" parent="1">
          <mxGeometry x="410" y="828" width="30" height="12" as="geometry" />
        </mxCell>
        <mxCell id="iKV3raK33TPdJ7R0SgNm-42" value="0" style="text;html=1;strokeColor=none;fillColor=none;align=center;verticalAlign=middle;whiteSpace=wrap;rounded=0;" vertex="1" parent="1">
          <mxGeometry x="330" y="840" width="30" height="10" as="geometry" />
        </mxCell>
      </root>
    </mxGraphModel>
  </diagram>
</mxfile>
